<svg width="32" height="15" viewBox="0 0 32 15" fill="none" xmlns="http://www.w3.org/2000/svg">
<path d="M1.24609 15C0.790365 15 0.5625 14.7559 0.5625 14.2676V1.72852C0.5625 1.24023 0.790365 0.996094 1.24609 0.996094H9.625C10.1133 0.996094 10.3574 1.20768 10.3574 1.63086V2.7832C10.3574 3.20638 10.1133 3.41797 9.625 3.41797H3.41406V6.52344H9.10742C9.5957 6.52344 9.83984 6.73503 9.83984 7.1582V8.31055C9.83984 8.73372 9.5957 8.94531 9.10742 8.94531H3.41406V12.5781H9.9375C10.4258 12.5781 10.6699 12.7897 10.6699 13.2129V14.3652C10.6699 14.7884 10.4258 15 9.9375 15H1.24609ZM12.1543 1.77734C12.0111 1.25651 12.1608 0.996094 12.6035 0.996094H14.4102C14.7161 0.996094 14.9212 1.21094 15.0254 1.64062L16.8809 9.31641C17.0176 9.8763 17.1055 10.2604 17.1445 10.4688C17.1901 10.6706 17.2292 10.9993 17.2617 11.4551H17.3105C17.3431 10.9993 17.3757 10.6543 17.4082 10.4199C17.4408 10.1855 17.5352 9.79818 17.6914 9.25781L19.8691 1.71875C20.0059 1.23698 20.2793 0.996094 20.6895 0.996094H22.4863C22.8965 0.996094 23.1699 1.23698 23.3066 1.71875L25.4844 9.25781C25.6406 9.79818 25.735 10.1855 25.7676 10.4199C25.8001 10.6543 25.8327 10.9993 25.8652 11.4551H25.9141C25.9466 10.9993 25.9824 10.6706 26.0215 10.4688C26.0671 10.2604 26.1582 9.8763 26.2949 9.31641L28.1504 1.64062C28.2546 1.21094 28.4596 0.996094 28.7656 0.996094H30.5723C31.015 0.996094 31.1647 1.25651 31.0215 1.77734L27.7012 14.0527C27.5319 14.6842 27.2259 15 26.7832 15H25.0742C24.6966 15 24.4199 14.6875 24.2441 14.0625L21.9004 5.87891C21.7702 5.4362 21.6953 5.14974 21.6758 5.01953C21.6562 4.88281 21.6302 4.63216 21.5977 4.26758H21.5781C21.5456 4.63216 21.5195 4.88281 21.5 5.01953C21.4805 5.14974 21.4056 5.4362 21.2754 5.87891L18.9316 14.0625C18.7559 14.6875 18.4792 15 18.1016 15H16.3926C15.9499 15 15.6439 14.6842 15.4746 14.0527L12.1543 1.77734Z" fill="white"/>
<path d="M3.41406 3.41797V2.41797H2.41406V3.41797H3.41406ZM3.41406 6.52344H2.41406V7.52344H3.41406V6.52344ZM3.41406 8.94531V7.94531H2.41406V8.94531H3.41406ZM3.41406 12.5781H2.41406V13.5781H3.41406V12.5781ZM1.24609 14C1.21872 14 1.23727 13.996 1.28336 14.0125C1.33498 14.0309 1.40318 14.0689 1.46445 14.1346C1.58873 14.2677 1.5625 14.3741 1.5625 14.2676H-0.4375C-0.4375 14.6494 -0.3498 15.1219 0.00234317 15.4992C0.366615 15.8895 0.845733 16 1.24609 16V14ZM1.5625 14.2676V1.72852H-0.4375V14.2676H1.5625ZM1.5625 1.72852C1.5625 1.62202 1.58873 1.72836 1.46445 1.86152C1.40318 1.92716 1.33498 1.96518 1.28336 1.98361C1.23727 2.00007 1.21872 1.99609 1.24609 1.99609V-0.00390625C0.845733 -0.00390625 0.366615 0.10659 0.00234317 0.496881C-0.3498 0.874177 -0.4375 1.34673 -0.4375 1.72852H1.5625ZM1.24609 1.99609H9.625V-0.00390625H1.24609V1.99609ZM9.625 1.99609C9.74729 1.99609 9.6523 2.02567 9.51939 1.91047C9.44993 1.85028 9.40346 1.77754 9.3783 1.71213C9.35545 1.65272 9.35742 1.61889 9.35742 1.63086H11.3574C11.3574 1.22488 11.2337 0.749592 10.8292 0.399096C10.4522 0.0723161 9.99099 -0.00390625 9.625 -0.00390625V1.99609ZM9.35742 1.63086V2.7832H11.3574V1.63086H9.35742ZM9.35742 2.7832C9.35742 2.79517 9.35545 2.76134 9.3783 2.70193C9.40346 2.63652 9.44993 2.56378 9.51939 2.50359C9.6523 2.3884 9.74729 2.41797 9.625 2.41797V4.41797C9.99099 4.41797 10.4522 4.34175 10.8292 4.01497C11.2337 3.66447 11.3574 3.18918 11.3574 2.7832H9.35742ZM9.625 2.41797H3.41406V4.41797H9.625V2.41797ZM2.41406 3.41797V6.52344H4.41406V3.41797H2.41406ZM3.41406 7.52344H9.10742V5.52344H3.41406V7.52344ZM9.10742 7.52344C9.22971 7.52344 9.13472 7.55301 9.00181 7.43782C8.93236 7.37763 8.88588 7.30488 8.86072 7.23947C8.83787 7.18006 8.83984 7.14623 8.83984 7.1582H10.8398C10.8398 6.75222 10.7161 6.27694 10.3117 5.92644C9.93461 5.59966 9.47341 5.52344 9.10742 5.52344V7.52344ZM8.83984 7.1582V8.31055H10.8398V7.1582H8.83984ZM8.83984 8.31055C8.83984 8.32252 8.83787 8.28869 8.86072 8.22928C8.88588 8.16387 8.93236 8.09112 9.00181 8.03093C9.13472 7.91574 9.22971 7.94531 9.10742 7.94531V9.94531C9.47341 9.94531 9.93461 9.86909 10.3117 9.54231C10.7161 9.19181 10.8398 8.71653 10.8398 8.31055H8.83984ZM9.10742 7.94531H3.41406V9.94531H9.10742V7.94531ZM2.41406 8.94531V12.5781H4.41406V8.94531H2.41406ZM3.41406 13.5781H9.9375V11.5781H3.41406V13.5781ZM9.9375 13.5781C10.0598 13.5781 9.9648 13.6077 9.83189 13.4925C9.76243 13.4323 9.71596 13.3596 9.6908 13.2942C9.66795 13.2348 9.66992 13.2009 9.66992 13.2129H11.6699C11.6699 12.8069 11.5462 12.3316 11.1417 11.9811C10.7647 11.6543 10.3035 11.5781 9.9375 11.5781V13.5781ZM9.66992 13.2129V14.3652H11.6699V13.2129H9.66992ZM9.66992 14.3652C9.66992 14.3772 9.66795 14.3434 9.6908 14.284C9.71596 14.2186 9.76243 14.1458 9.83189 14.0856C9.9648 13.9704 10.0598 14 9.9375 14V16C10.3035 16 10.7647 15.9238 11.1417 15.597C11.5462 15.2465 11.6699 14.7712 11.6699 14.3652H9.66992ZM9.9375 14H1.24609V16H9.9375V14ZM12.1543 1.77734L13.1196 1.51624L13.1185 1.51219L12.1543 1.77734ZM15.0254 1.64062L15.9974 1.40566L15.9972 1.40502L15.0254 1.64062ZM16.8809 9.31641L15.9089 9.55137L15.9094 9.55362L16.8809 9.31641ZM17.1445 10.4688L16.1617 10.653L16.165 10.6711L16.1691 10.689L17.1445 10.4688ZM17.2617 11.4551L16.2643 11.5263L16.3306 12.4551H17.2617V11.4551ZM17.3105 11.4551V12.4551H18.2417L18.308 11.5263L17.3105 11.4551ZM17.6914 9.25781L18.6521 9.53559L18.6521 9.53533L17.6914 9.25781ZM19.8691 1.71875L20.8299 1.99627L20.8312 1.99175L19.8691 1.71875ZM23.3066 1.71875L22.3446 1.99176L22.3459 1.99626L23.3066 1.71875ZM25.4844 9.25781L24.5237 9.53533L24.5237 9.53559L25.4844 9.25781ZM25.8652 11.4551L24.8678 11.5263L24.9341 12.4551H25.8652V11.4551ZM25.9141 11.4551V12.4551H26.8452L26.9115 11.5263L25.9141 11.4551ZM26.0215 10.4688L25.0446 10.2551L25.042 10.2669L25.0397 10.2787L26.0215 10.4688ZM26.2949 9.31641L27.2664 9.55362L27.2669 9.55137L26.2949 9.31641ZM28.1504 1.64062L27.1785 1.40502L27.1784 1.40566L28.1504 1.64062ZM31.0215 1.77734L30.0573 1.51218L30.0562 1.51624L31.0215 1.77734ZM27.7012 14.0527L26.7359 13.7916L26.7353 13.7938L27.7012 14.0527ZM24.2441 14.0625L25.2068 13.7918L25.2055 13.7872L24.2441 14.0625ZM21.9004 5.87891L22.8618 5.60357L22.8598 5.59674L21.9004 5.87891ZM21.6758 5.01953L20.6858 5.16096L20.6868 5.16787L21.6758 5.01953ZM21.5977 4.26758L22.5937 4.17865L22.5123 3.26758H21.5977V4.26758ZM21.5781 4.26758V3.26758H20.6634L20.5821 4.17865L21.5781 4.26758ZM21.5 5.01953L22.489 5.16788L22.4899 5.16095L21.5 5.01953ZM21.2754 5.87891L20.316 5.59673L20.314 5.60358L21.2754 5.87891ZM18.9316 14.0625L17.9703 13.7872L17.969 13.7918L18.9316 14.0625ZM15.4746 14.0527L16.4405 13.7938L16.4399 13.7916L15.4746 14.0527ZM13.1185 1.51219C13.0986 1.43969 13.102 1.42147 13.1018 1.44388C13.1016 1.46801 13.0965 1.5675 13.0261 1.68988C12.9488 1.82434 12.8342 1.91408 12.7288 1.96039C12.6385 2.00009 12.5835 1.99609 12.6035 1.99609V-0.00390625C12.2101 -0.00390625 11.622 0.119453 11.2923 0.692935C11.0114 1.18141 11.0994 1.71268 11.1901 2.0425L13.1185 1.51219ZM12.6035 1.99609H14.4102V-0.00390625H12.6035V1.99609ZM14.4102 1.99609C14.3674 1.99609 14.3042 1.98807 14.2332 1.95823C14.1616 1.92812 14.1068 1.88616 14.0701 1.8477C14.006 1.78059 14.0241 1.7547 14.0535 1.87623L15.9972 1.40502C15.9225 1.09686 15.786 0.748706 15.5168 0.466751C15.2192 0.155013 14.8271 -0.00390625 14.4102 -0.00390625V1.99609ZM14.0534 1.87559L15.9089 9.55137L17.8529 9.08144L15.9974 1.40566L14.0534 1.87559ZM15.9094 9.55362C16.0467 10.1159 16.1283 10.4751 16.1617 10.653L18.1274 10.2845C18.0826 10.0458 17.9884 9.63665 17.8523 9.07919L15.9094 9.55362ZM16.1691 10.689C16.1968 10.8117 16.2321 11.0757 16.2643 11.5263L18.2592 11.3838C18.2263 10.923 18.1834 10.5295 18.12 10.2485L16.1691 10.689ZM17.2617 12.4551H17.3105V10.4551H17.2617V12.4551ZM18.308 11.5263C18.3401 11.0764 18.3708 10.7581 18.3987 10.5575L16.4177 10.2824C16.3805 10.5505 16.3461 10.9223 16.3131 11.3838L18.308 11.5263ZM18.3987 10.5575C18.4204 10.4014 18.496 10.0753 18.6521 9.53559L16.7308 8.98004C16.5743 9.52108 16.4611 9.96971 16.4177 10.2824L18.3987 10.5575ZM18.6521 9.53533L20.8299 1.99626L18.9084 1.44124L16.7307 8.9803L18.6521 9.53533ZM20.8312 1.99175C20.8661 1.86878 20.8896 1.88144 20.8378 1.92712C20.8105 1.95115 20.776 1.97168 20.7398 1.98442C20.7054 1.99653 20.6854 1.99609 20.6895 1.99609V-0.00390625C20.2737 -0.00390625 19.8582 0.124685 19.5157 0.426399C19.1904 0.71296 19.0089 1.08694 18.9071 1.44575L20.8312 1.99175ZM20.6895 1.99609H22.4863V-0.00390625H20.6895V1.99609ZM22.4863 1.99609C22.4904 1.99609 22.4704 1.99653 22.436 1.98442C22.3998 1.97168 22.3653 1.95115 22.338 1.92712C22.2861 1.88144 22.3097 1.86878 22.3446 1.99175L24.2687 1.44575C24.1668 1.08694 23.9853 0.71296 23.6601 0.426399C23.3176 0.124685 22.9021 -0.00390625 22.4863 -0.00390625V1.99609ZM22.3459 1.99626L24.5237 9.53533L26.4451 8.9803L24.2674 1.44124L22.3459 1.99626ZM24.5237 9.53559C24.6798 10.0753 24.7554 10.4014 24.7771 10.5575L26.7581 10.2824C26.7146 9.96971 26.6015 9.52108 26.445 8.98004L24.5237 9.53559ZM24.7771 10.5575C24.8049 10.7581 24.8356 11.0764 24.8678 11.5263L26.8627 11.3838C26.8297 10.9223 26.7953 10.5505 26.7581 10.2824L24.7771 10.5575ZM25.8652 12.4551H25.9141V10.4551H25.8652V12.4551ZM26.9115 11.5263C26.9438 11.0744 26.9765 10.7972 27.0033 10.6588L25.0397 10.2787C24.9884 10.544 24.9494 10.9243 24.9166 11.3838L26.9115 11.5263ZM26.9984 10.6824C27.041 10.4875 27.1294 10.1145 27.2664 9.55362L25.3235 9.07919C25.187 9.63806 25.0931 10.0333 25.0446 10.2551L26.9984 10.6824ZM27.2669 9.55137L29.1224 1.87559L27.1784 1.40566L25.3229 9.08144L27.2669 9.55137ZM29.1222 1.87623C29.1517 1.7547 29.1697 1.78059 29.1057 1.8477C29.069 1.88616 29.0142 1.92812 28.9426 1.95823C28.8716 1.98807 28.8083 1.99609 28.7656 1.99609V-0.00390625C28.3487 -0.00390625 27.9565 0.155013 27.659 0.466751C27.3898 0.748706 27.2532 1.09686 27.1785 1.40502L29.1222 1.87623ZM28.7656 1.99609H30.5723V-0.00390625H28.7656V1.99609ZM30.5723 1.99609C30.5923 1.99609 30.5373 2.00009 30.447 1.96039C30.3416 1.91408 30.227 1.82434 30.1497 1.68988C30.0793 1.5675 30.0742 1.46801 30.074 1.44388C30.0738 1.42147 30.0772 1.43969 30.0573 1.51219L31.9857 2.0425C32.0764 1.71268 32.1644 1.18141 31.8835 0.692935C31.5538 0.119453 30.9657 -0.00390625 30.5723 -0.00390625V1.99609ZM30.0562 1.51624L26.7359 13.7916L28.6665 14.3138L31.9868 2.03845L30.0562 1.51624ZM26.7353 13.7938C26.7066 13.9008 26.6777 13.973 26.6548 14.0187C26.632 14.0642 26.6195 14.0746 26.6266 14.0673C26.6359 14.0577 26.6608 14.0363 26.701 14.0194C26.741 14.0025 26.7725 14 26.7832 14V16C27.2731 16 27.72 15.8128 28.0629 15.4591C28.3782 15.1337 28.5582 14.7176 28.6671 14.3116L26.7353 13.7938ZM26.7832 14H25.0742V16H26.7832V14ZM25.0742 14C25.1226 14 25.1825 14.0111 25.2409 14.039C25.2969 14.0658 25.3259 14.0956 25.3322 14.1027C25.3367 14.1078 25.3215 14.0919 25.2955 14.038C25.2697 13.9846 25.2386 13.9048 25.2068 13.7918L23.2815 14.3332C23.3898 14.7183 23.5563 15.114 23.8348 15.4285C24.1406 15.7739 24.567 16 25.0742 16V14ZM25.2055 13.7872L22.8617 5.60358L20.939 6.15423L23.2828 14.3378L25.2055 13.7872ZM22.8598 5.59674C22.7961 5.3804 22.748 5.20877 22.7141 5.07916C22.6972 5.01443 22.6847 4.96375 22.6761 4.92552C22.6668 4.8847 22.6644 4.86917 22.6647 4.87119L20.6868 5.16787C20.7186 5.37974 20.8163 5.73702 20.941 6.16107L22.8598 5.59674ZM22.6657 4.87811C22.6504 4.77104 22.6264 4.54514 22.5937 4.17865L20.6016 4.35651C20.634 4.71918 20.6621 4.99458 20.6858 5.16095L22.6657 4.87811ZM21.5977 3.26758H21.5781V5.26758H21.5977V3.26758ZM20.5821 4.17865C20.5494 4.54514 20.5253 4.77104 20.5101 4.87811L22.4899 5.16095C22.5137 4.99458 22.5418 4.71918 22.5742 4.35651L20.5821 4.17865ZM20.5111 4.87119C20.5114 4.86917 20.5089 4.8847 20.4997 4.92552C20.491 4.96375 20.4786 5.01443 20.4617 5.07916C20.4278 5.20877 20.3797 5.3804 20.316 5.59674L22.2348 6.16107C22.3595 5.73702 22.4572 5.37974 22.4889 5.16787L20.5111 4.87119ZM20.314 5.60358L17.9703 13.7872L19.893 14.3378L22.2367 6.15423L20.314 5.60358ZM17.969 13.7918C17.9372 13.9048 17.9061 13.9846 17.8803 14.038C17.8543 14.0919 17.8391 14.1078 17.8436 14.1027C17.8499 14.0956 17.8789 14.0658 17.9349 14.039C17.9933 14.0111 18.0532 14 18.1016 14V16C18.6088 16 19.0352 15.7739 19.341 15.4285C19.6195 15.114 19.786 14.7183 19.8943 14.3332L17.969 13.7918ZM18.1016 14H16.3926V16H18.1016V14ZM16.3926 14C16.4033 14 16.4347 14.0025 16.4748 14.0194C16.515 14.0363 16.5399 14.0577 16.5492 14.0673C16.5563 14.0746 16.5438 14.0642 16.521 14.0187C16.4981 13.973 16.4692 13.9008 16.4405 13.7938L14.5087 14.3116C14.6175 14.7176 14.7976 15.1337 15.1129 15.4591C15.4557 15.8128 15.9027 16 16.3926 16V14ZM16.4399 13.7916L13.1196 1.51624L11.189 2.03845L14.5093 14.3138L16.4399 13.7916Z" fill="#FF6F6F"/>
</svg>
